<?xml version="1.0" encoding="UTF-8" standalone="no"?>
<!-- Created with Inkscape (http://www.inkscape.org/) -->

<svg
   xmlns:dc="http://purl.org/dc/elements/1.1/"
   xmlns:cc="http://creativecommons.org/ns#"
   xmlns:rdf="http://www.w3.org/1999/02/22-rdf-syntax-ns#"
   xmlns:svg="http://www.w3.org/2000/svg"
   xmlns="http://www.w3.org/2000/svg"
   xmlns:sodipodi="http://sodipodi.sourceforge.net/DTD/sodipodi-0.dtd"
   xmlns:inkscape="http://www.inkscape.org/namespaces/inkscape"
   width="107.32907mm"
   height="103.7306mm"
   viewBox="0 0 107.32907 103.7306"
   version="1.1"
   id="svg858"
   inkscape:version="0.92.2 (5c3e80d, 2017-08-06)"
   sodipodi:docname="jersey-back.svg">
  <defs
     id="defs852">
    <clipPath
       clipPathUnits="userSpaceOnUse"
       id="clipPath624">
      <path
         d="M 0,550 H 1100 V 0 H 0 Z"
         id="path622"
         inkscape:connector-curvature="0" />
    </clipPath>
    <clipPath
       clipPathUnits="userSpaceOnUse"
       id="clipPath636">
      <path
         d="m 478.657,414.398 c 0.047,0 0.092,0 0.139,0 v 0 c 0.047,0 0.092,0 0.139,0 v 0 z m -35.842,-14.856 c 0,0 -45.617,-6.166 -70.644,-26.943 v 0 c 0,0 -53.358,-96.802 -43.442,-193.128 v 0 c 0,0 7.366,-0.945 24.363,3.779 v 0 c 17.001,4.719 12.28,7.553 24.084,9.916 v 0 c 0,0 -0.472,23.607 8.026,45.33 v 0 c 8.502,21.719 18.418,71.3 18.418,71.3 v 0 c 0,0 -6.724,-77.243 -14.279,-146.724 v 0 c 0,0 24.418,-28.787 35.291,-33.291 v 0 c 25.02,-10.366 83.306,-10.366 108.328,0 v 0 c 10.873,4.504 35.291,33.291 35.291,33.291 v 0 c -7.555,69.481 -14.279,146.724 -14.279,146.724 v 0 c 0,0 9.918,-49.581 18.415,-71.3 v 0 c 8.501,-21.723 8.028,-45.33 8.028,-45.33 v 0 c 11.805,-2.363 7.082,-5.197 24.082,-9.916 v 0 c 17,-4.724 24.364,-3.779 24.364,-3.779 v 0 c 9.918,96.326 -43.443,193.128 -43.443,193.128 v 0 c -25.025,20.777 -70.641,26.943 -70.641,26.943 v 0 c 0,0 -7.726,14.807 -35.981,14.856 v 0 c -28.255,-0.049 -35.981,-14.856 -35.981,-14.856"
         id="path634"
         inkscape:connector-curvature="0" />
    </clipPath>
    <pattern
       patternTransform="translate(-553.9717,240.2036)"
       patternUnits="userSpaceOnUse"
       x="0"
       y="0"
       width="6"
       height="12.0103"
       id="pattern644">
      <g
         transform="translate(6,0.4502)"
         id="g642">
        <path
           d="m 0,0 0,-0.45 -0.44,0 C -0.44,-0.21 -0.24,0 0,0 M 0,6 0,5.11 c -0.24,0 -0.44,0.2 -0.44,0.44 C -0.44,5.8 -0.24,6 0,6 m 0,5.56 0,-0.45 c -0.24,0 -0.44,0.2 -0.44,0.45 l 0.44,0 z m -0.55,-3 c 0,-0.25 -0.2,-0.45 -0.45,-0.45 -0.25,0 -0.44,0.2 -0.44,0.45 C -1.44,8.8 -1.25,9 -1,9 -0.75,9 -0.55,8.8 -0.55,8.56 m 0,-6.01 C -0.55,2.3 -0.75,2.1 -1,2.1 -1.25,2.1 -1.44,2.3 -1.44,2.55 -1.44,2.8 -1.25,3 -1,3 -0.75,3 -0.55,2.8 -0.55,2.55 m -2.9,9.01 0.9,0 c 0,-0.25 -0.2,-0.45 -0.45,-0.45 -0.25,0 -0.45,0.2 -0.45,0.45 m 0.9,-12.01 -0.9,0 c 0,0.24 0.2,0.45 0.45,0.45 0.25,0 0.45,-0.21 0.45,-0.45 m 0,6 c 0,-0.24 -0.2,-0.44 -0.45,-0.44 -0.25,0 -0.45,0.2 -0.45,0.44 0,0.25 0.2,0.45 0.45,0.45 0.25,0 0.45,-0.2 0.45,-0.45 m -2.01,3.01 c 0,-0.25 -0.2,-0.45 -0.44,-0.45 -0.25,0 -0.45,0.2 -0.45,0.45 0,0.24 0.2,0.44 0.45,0.44 0.24,0 0.44,-0.2 0.44,-0.44 m 0,-6.01 C -4.56,2.3 -4.76,2.1 -5,2.1 -5.25,2.1 -5.45,2.3 -5.45,2.55 -5.45,2.8 -5.25,3 -5,3 -4.76,3 -4.56,2.8 -4.56,2.55 m -1.44,9.01 0.44,0 c 0,-0.25 -0.2,-0.45 -0.44,-0.45 l 0,0.45 z M -5.56,-0.45 -6,-0.45 -6,0 c 0.24,0 0.44,-0.21 0.44,-0.45 M -6,6 -6,5.11 c 0.24,0 0.44,0.2 0.44,0.44 C -5.56,5.8 -5.76,6 -6,6"
           style="fill:#686969;fill-opacity:1;fill-rule:nonzero;stroke:none"
           id="path640" />
      </g>
    </pattern>
  </defs>
  <sodipodi:namedview
     id="base"
     pagecolor="#ffffff"
     bordercolor="#666666"
     borderopacity="1.0"
     inkscape:pageopacity="0.0"
     inkscape:pageshadow="2"
     inkscape:zoom="3.959798"
     inkscape:cx="129.17648"
     inkscape:cy="237.43453"
     inkscape:document-units="mm"
     inkscape:current-layer="jersey-back"
     showgrid="false"
     fit-margin-top="0"
     fit-margin-left="0"
     fit-margin-right="0"
     fit-margin-bottom="0"
     inkscape:window-width="2736"
     inkscape:window-height="1699"
     inkscape:window-x="-13"
     inkscape:window-y="-13"
     inkscape:window-maximized="1" />
  <metadata
     id="metadata855">
    <rdf:RDF>
      <cc:Work
         rdf:about="">
        <dc:format>image/svg+xml</dc:format>
        <dc:type
           rdf:resource="http://purl.org/dc/dcmitype/StillImage" />
        <dc:title></dc:title>
      </cc:Work>
    </rdf:RDF>
  </metadata>
  <g
     inkscape:label="Layer 1"
     inkscape:groupmode="layer"
     id="layer1"
     transform="translate(-47.633083,-64.46208)">
    <g
       transform="matrix(0.35277777,0,0,-0.35277777,-75.894812,222.71545)"
       id="jersey-back">
      <g
         transform="translate(23.482837,33.370343)"
         id="back-base-color"
         style="fill:#d38d5f"
         sodipodi:insensitive="true">
        <g
           clip-path="url(#clipPath624)"
           id="g620"
           style="fill:#d38d5f">
          <g
             transform="translate(478.6572,414.3979)"
             id="g626"
             style="fill:#d38d5f">
            <path
               inkscape:connector-curvature="0"
               id="path628"
               style="fill:#d38d5f;fill-opacity:1;fill-rule:nonzero;stroke:none"
               d="m 0,0 c 28.369,0 36.119,-14.855 36.119,-14.855 0,0 45.617,-6.167 70.643,-26.944 0,0 53.359,-96.802 43.441,-193.128 0,0 -7.363,-0.946 -24.363,3.779 -17,4.719 -12.277,7.553 -24.082,9.916 0,0 0.472,23.607 -8.028,45.33 -8.498,21.719 -18.416,71.3 -18.416,71.3 0,0 6.725,-77.243 14.28,-146.724 0,0 -24.418,-28.787 -35.291,-33.291 -25.022,-10.366 -83.309,-10.366 -108.328,0 -10.873,4.504 -35.291,33.291 -35.291,33.291 7.554,69.481 14.279,146.724 14.279,146.724 0,0 -9.916,-49.581 -18.418,-71.3 -8.498,-21.723 -8.025,-45.33 -8.025,-45.33 -11.805,-2.363 -7.084,-5.197 -24.084,-9.916 -16.998,-4.725 -24.364,-3.779 -24.364,-3.779 -9.916,96.326 43.442,193.128 43.442,193.128 25.027,20.777 70.644,26.944 70.644,26.944 0,0 7.75,14.855 36.119,14.855" />
          </g>
        </g>
      </g>
      <g
         id="back-shoulder-color"
         clip-path="url(#clipPath636)"
         transform="translate(23.482837,33.370343)"
         inkscape:label="#back-shoulder-color">
        <g
           id="g638"
           transform="translate(553.9717,309.7964)">
          <path
             d="M 0,0 5.641,-64.14 -11.1,-70.821 c -3.49,49.721 0.411,93.561 0.411,93.561 1.429,35.81 -51.1,36.29 -51.1,36.29 l -26.262,0.1 c 0,0 -53.539,-0.48 -52.099,-36.29 0,0 2.9,-43.85 -0.6,-93.57 l -15.73,5.69 6.121,65.04 c 0,45.37 -9.151,51.79 -9.151,51.79 9.889,-0.54 39.41,15.33 63.731,14.46 H -54.58 C -30.26,67.12 -0.74,51.25 9.15,51.79 9.15,51.79 0,45.37 0,0"
             style="fill:url(#pattern644);fill-opacity:1;fill-rule:nonzero;stroke:none"
             id="path646"
             inkscape:connector-curvature="0" />
        </g>
        <g
           id="g648"
           transform="translate(581.2979,375.4824)">
          <path
             d="m 0,0 c -9.5,-4.614 -18.432,-13.894 -18.432,-13.894 0,0 -5.084,-3.564 -7.674,-24.161 0,0 -0.547,-7.285 -11.701,-7.285 h -129.65 c -11.154,0 -11.701,7.285 -11.701,7.285 -2.591,20.597 -7.674,24.161 -7.674,24.161 0,0 -8.934,9.28 -18.434,13.894 0,0 22.151,41.684 106.24,41.684 C -14.938,41.684 0,0 0,0"
             style="fill:#d1d3d4;fill-opacity:1;fill-rule:nonzero;stroke:none"
             id="path650"
             inkscape:connector-curvature="0" />
        </g>
      </g>
      <g
         transform="translate(502.13424,436.22434)"
         id="back-collar-color">
        <path
           inkscape:connector-curvature="0"
           id="path662"
           style="fill:#d1d3d4;fill-opacity:1;fill-rule:nonzero;stroke:none"
           d="m 0,0 c 28.371,0 36.125,-3.312 36.125,-3.312 0,0 -7.75,14.856 -36.119,14.856 h 0.277 c -28.369,0 -36.119,-14.856 -36.119,-14.856 h -0.004 c 0,0 7.748,3.312 36.117,3.312" />
      </g>
      <g
         transform="translate(502.14004,447.76824)"
         id="g664">
        <path
           inkscape:connector-curvature="0"
           id="path666"
           style="fill:none;stroke:#686969;stroke-width:1.648;stroke-linecap:butt;stroke-linejoin:miter;stroke-miterlimit:10;stroke-dasharray:none;stroke-opacity:1"
           d="m 0,0 c 28.369,0 36.119,-14.855 36.119,-14.855 0,0 45.617,-6.167 70.643,-26.944 0,0 53.359,-96.802 43.441,-193.128 0,0 -7.363,-0.946 -24.363,3.779 -17,4.719 -12.277,7.553 -24.082,9.916 0,0 0.472,23.607 -8.028,45.33 -8.498,21.719 -18.416,71.3 -18.416,71.3 0,0 6.725,-77.243 14.28,-146.724 0,0 -24.418,-28.787 -35.291,-33.291 -25.022,-10.366 -83.309,-10.366 -108.328,0 -10.873,4.504 -35.291,33.291 -35.291,33.291 7.554,69.481 14.279,146.724 14.279,146.724 0,0 -9.916,-49.581 -18.418,-71.3 -8.498,-21.723 -8.025,-45.33 -8.025,-45.33 -11.805,-2.363 -7.084,-5.197 -24.084,-9.916 -16.998,-4.725 -24.364,-3.779 -24.364,-3.779 -9.916,96.326 43.442,193.128 43.442,193.128 25.027,20.777 70.644,26.944 70.644,26.944 0,0 7.75,14.855 36.119,14.855" />
      </g>
      <g
         transform="translate(591.73384,203.44655)"
         id="g668">
        <path
           inkscape:connector-curvature="0"
           id="path670"
           style="fill:none;stroke:#686969;stroke-width:0.824;stroke-linecap:butt;stroke-linejoin:miter;stroke-miterlimit:10;stroke-dasharray:none;stroke-opacity:1"
           d="m 0,0 c 0,0 -24.418,-28.787 -35.291,-33.291 -25.022,-10.363 -83.309,-10.365 -108.328,0 C -154.492,-28.787 -178.91,0 -178.91,0" />
      </g>
      <g
         transform="translate(400.65964,232.54225)"
         id="g672">
        <path
           inkscape:connector-curvature="0"
           id="path674"
           style="fill:none;stroke:#686969;stroke-width:0.824;stroke-linecap:butt;stroke-linejoin:miter;stroke-miterlimit:10;stroke-dasharray:none;stroke-opacity:1"
           d="m 0,0 c -11.805,-2.363 -7.084,-5.197 -24.084,-9.916 -16.998,-4.725 -24.363,-3.779 -24.363,-3.779" />
      </g>
      <g
         transform="translate(652.34324,218.84695)"
         id="g676">
        <path
           inkscape:connector-curvature="0"
           id="path678"
           style="fill:none;stroke:#686969;stroke-width:0.824;stroke-linecap:butt;stroke-linejoin:miter;stroke-miterlimit:10;stroke-dasharray:none;stroke-opacity:1"
           d="m 0,0 c 0,0 -7.363,-0.945 -24.363,3.779 -17,4.719 -12.278,7.553 -24.082,9.916" />
      </g>
      <g
         transform="translate(372.55604,351.77364)"
         id="g680">
        <path
           inkscape:connector-curvature="0"
           id="path682"
           style="fill:none;stroke:#686969;stroke-width:0.824;stroke-linecap:butt;stroke-linejoin:miter;stroke-miterlimit:10;stroke-dasharray:none;stroke-opacity:1"
           d="M 0,0 52.66,-19.167" />
      </g>
      <g
         transform="translate(357.82564,299.93284)"
         id="g684">
        <path
           inkscape:connector-curvature="0"
           id="path686"
           style="fill:none;stroke:#686969;stroke-width:0.824;stroke-linecap:butt;stroke-linejoin:miter;stroke-miterlimit:10;stroke-dasharray:none;stroke-opacity:1"
           d="M 0,0 53.209,-19.367" />
      </g>
      <g
         transform="translate(632.08344,351.77364)"
         id="g688">
        <path
           inkscape:connector-curvature="0"
           id="path690"
           style="fill:none;stroke:#686969;stroke-width:0.824;stroke-linecap:butt;stroke-linejoin:miter;stroke-miterlimit:10;stroke-dasharray:none;stroke-opacity:1"
           d="M 0,0 -52.66,-19.167" />
      </g>
      <g
         transform="translate(646.81194,299.93284)"
         id="g692">
        <path
           inkscape:connector-curvature="0"
           id="path694"
           style="fill:none;stroke:#686969;stroke-width:0.824;stroke-linecap:butt;stroke-linejoin:miter;stroke-miterlimit:10;stroke-dasharray:none;stroke-opacity:1"
           d="M 0,0 -53.209,-19.367" />
      </g>
      <g
         transform="translate(420.97604,278.13014)"
         id="g696">
        <path
           inkscape:connector-curvature="0"
           id="path698"
           style="fill:none;stroke:#686969;stroke-width:0.824;stroke-linecap:butt;stroke-linejoin:miter;stroke-miterlimit:10;stroke-dasharray:none;stroke-opacity:1"
           d="M 0,0 15.852,-5.732" />
      </g>
      <g
         transform="translate(420.11464,259.95824)"
         id="g700">
        <path
           inkscape:connector-curvature="0"
           id="path702"
           style="fill:none;stroke:#686969;stroke-width:0.824;stroke-linecap:butt;stroke-linejoin:miter;stroke-miterlimit:10;stroke-dasharray:none;stroke-opacity:1"
           d="M 0,0 C 50.828,-25.896 113.984,-25.896 164.811,0" />
      </g>
      <g
         transform="translate(583.09904,279.03054)"
         id="g704">
        <path
           inkscape:connector-curvature="0"
           id="path706"
           style="fill:none;stroke:#686969;stroke-width:0.824;stroke-linecap:butt;stroke-linejoin:miter;stroke-miterlimit:10;stroke-dasharray:none;stroke-opacity:1"
           d="M 0,0 -16.854,-6.732" />
      </g>
      <g
         transform="translate(568.03074,253.13014)"
         id="g708">
        <path
           inkscape:connector-curvature="0"
           id="path710"
           style="fill:none;stroke:#686969;stroke-width:0.824;stroke-linecap:butt;stroke-linejoin:miter;stroke-miterlimit:10;stroke-dasharray:none;stroke-opacity:1"
           d="m 0,0 c -5.943,57.045 -1.057,110.383 -1.057,110.383 1.432,35.818 -31.291,38.687 -31.291,38.687 l -66.291,0.099 c 0,0 -33.502,-2.968 -32.068,-38.786 0,0 3.662,-53.238 -2.281,-110.283" />
      </g>
      <g
         transform="translate(538.25924,432.91284)"
         id="g712">
        <path
           inkscape:connector-curvature="0"
           id="path714"
           style="fill:none;stroke:#686969;stroke-width:1.648;stroke-linecap:butt;stroke-linejoin:miter;stroke-miterlimit:10;stroke-dasharray:none;stroke-opacity:1"
           d="m 0,0 c 0,0 -7.754,3.312 -36.125,3.312 h 0.277 C -64.217,3.312 -71.965,0 -71.965,0" />
      </g>
      <g
         transform="translate(604.78074,408.85274)"
         id="g716">
        <path
           inkscape:connector-curvature="0"
           id="path718"
           style="fill:none;stroke:#686969;stroke-width:0.824;stroke-linecap:butt;stroke-linejoin:miter;stroke-miterlimit:10;stroke-dasharray:none;stroke-opacity:1"
           d="m 0,0 c -9.5,-4.614 -18.432,-13.894 -18.432,-13.894 0,0 -5.084,-3.564 -7.674,-24.161 0,0 -0.547,-7.285 -11.701,-7.285 h -129.65 c -11.154,0 -11.701,7.285 -11.701,7.285 -2.591,20.597 -7.674,24.161 -7.674,24.161 0,0 -8.934,9.28 -18.434,13.894" />
      </g>
      <g
         transform="translate(578.67424,370.79804)"
         id="g720">
        <path
           inkscape:connector-curvature="0"
           id="path722"
           style="fill:none;stroke:#686969;stroke-width:0.824;stroke-linecap:butt;stroke-linejoin:miter;stroke-miterlimit:10;stroke-dasharray:none;stroke-opacity:1"
           d="M 0,0 C -0.757,-6.738 -1.22,-17.109 -1.22,-27.631" />
      </g>
      <g
         transform="translate(425.88224,370.79804)"
         id="g724">
        <path
           inkscape:connector-curvature="0"
           id="path726"
           style="fill:none;stroke:#686969;stroke-width:0.824;stroke-linecap:butt;stroke-linejoin:miter;stroke-miterlimit:10;stroke-dasharray:none;stroke-opacity:1"
           d="M 0,0 C 0.756,-6.738 1.221,-17.109 1.221,-27.631" />
      </g>
      <g
         transform="translate(485.67914,418.56124)"
         id="g728">
        <path
           inkscape:connector-curvature="0"
           id="path730"
           style="fill:#686969;fill-opacity:1;fill-rule:nonzero;stroke:none"
           d="m 0,0 h 0.672 v -1.345 h -2.69 V 0 h 0.674 v 4.032 h -0.674 v 1.344 h 2.69 V 4.032 H 0 Z" />
      </g>
      <g
         transform="translate(490.98774,421.58474)"
         id="g732">
        <path
           inkscape:connector-curvature="0"
           id="path734"
           style="fill:#686969;fill-opacity:1;fill-rule:nonzero;stroke:none"
           d="M 0,0 V 0.336 C 0,0.522 -0.066,0.681 -0.197,0.812 -0.328,0.943 -0.486,1.009 -0.672,1.009 H -2.016 C -2.201,1.009 -2.359,0.943 -2.49,0.812 -2.623,0.681 -2.688,0.522 -2.688,0.336 v -2.688 c 0,-0.185 0.065,-0.344 0.198,-0.475 0.131,-0.131 0.289,-0.196 0.474,-0.196 h 1.344 c 0.186,0 0.344,0.065 0.475,0.196 C -0.066,-2.696 0,-2.537 0,-2.352 v 0.336 H 1.346 V -2.352 C 1.346,-2.634 1.291,-2.896 1.186,-3.14 1.08,-3.382 0.937,-3.595 0.754,-3.777 0.572,-3.96 0.357,-4.104 0.111,-4.209 -0.135,-4.315 -0.396,-4.368 -0.672,-4.368 h -1.344 c -0.281,0 -0.545,0.053 -0.787,0.159 -0.244,0.105 -0.457,0.249 -0.638,0.432 -0.184,0.182 -0.327,0.395 -0.432,0.637 -0.106,0.244 -0.158,0.506 -0.158,0.788 v 2.688 c 0,0.275 0.052,0.536 0.158,0.783 0.105,0.247 0.248,0.461 0.432,0.644 0.181,0.181 0.394,0.326 0.638,0.431 0.242,0.106 0.506,0.159 0.787,0.159 h 1.344 C -0.396,2.353 -0.135,2.3 0.111,2.194 0.357,2.089 0.572,1.944 0.754,1.763 0.937,1.58 1.08,1.366 1.186,1.119 1.291,0.872 1.346,0.611 1.346,0.336 V 0 Z" />
      </g>
      <g
         transform="translate(497.57364,423.93724)"
         id="g736">
        <path
           inkscape:connector-curvature="0"
           id="path738"
           style="fill:#686969;fill-opacity:1;fill-rule:nonzero;stroke:none"
           d="m 0,0 v -2.017 h -1.344 v 0.673 h -1.344 v -1.344 h 1.344 v -1.344 h -1.344 v -1.344 h 1.344 v 0.672 H 0 v -2.017 h -4.703 v 1.345 h 0.672 v 4.032 H -4.703 V 0 Z" />
      </g>
      <g
         transform="translate(501.54044,418.56124)"
         id="g740">
        <path
           inkscape:connector-curvature="0"
           id="path742"
           style="fill:#686969;fill-opacity:1;fill-rule:nonzero;stroke:none"
           d="m 0,0 c 0.205,0 0.379,0.071 0.523,0.216 0.143,0.143 0.215,0.317 0.215,0.522 0,0.205 -0.072,0.38 -0.215,0.525 C 0.379,1.406 0.205,1.479 0,1.479 H -1.346 V 0 Z M -1.346,4.032 V 2.822 H 0 c 0.166,0 0.309,0.06 0.426,0.178 0.119,0.118 0.178,0.261 0.178,0.428 0,0.165 -0.059,0.308 -0.178,0.426 C 0.309,3.973 0.166,4.032 0,4.032 Z M 1.498,2.179 C 1.684,1.993 1.826,1.777 1.93,1.531 2.031,1.284 2.082,1.021 2.082,0.738 2.082,0.45 2.027,0.18 1.92,-0.072 1.811,-0.325 1.662,-0.547 1.473,-0.735 1.285,-0.924 1.062,-1.072 0.811,-1.182 0.559,-1.291 0.287,-1.345 0,-1.345 H -3.361 V 0 h 0.672 V 4.032 H -3.361 V 5.376 H 0 C 0.27,5.376 0.521,5.325 0.758,5.223 0.994,5.12 1.201,4.98 1.377,4.805 1.553,4.629 1.693,4.422 1.795,4.186 1.896,3.949 1.947,3.696 1.947,3.428 1.947,3.19 1.908,2.966 1.828,2.755 1.748,2.544 1.639,2.352 1.498,2.179" />
      </g>
      <g
         transform="translate(508.18304,421.92064)"
         id="g744">
        <path
           inkscape:connector-curvature="0"
           id="path746"
           style="fill:#686969;fill-opacity:1;fill-rule:nonzero;stroke:none"
           d="m 0,0 c 0,0.187 -0.064,0.345 -0.195,0.477 -0.133,0.13 -0.289,0.196 -0.477,0.196 H -2.016 C -2.201,0.673 -2.359,0.607 -2.49,0.477 -2.621,0.345 -2.688,0.187 -2.688,0 v -2.688 c 0,-0.185 0.067,-0.344 0.198,-0.475 0.131,-0.131 0.289,-0.196 0.474,-0.196 h 1.344 c 0.188,0 0.344,0.065 0.477,0.196 C -0.064,-3.032 0,-2.873 0,-2.688 Z m -0.672,2.017 c 0.276,0 0.537,-0.053 0.783,-0.159 C 0.357,1.753 0.572,1.608 0.756,1.427 0.937,1.244 1.08,1.03 1.187,0.783 1.293,0.536 1.346,0.275 1.346,0 V -2.688 C 1.346,-2.97 1.293,-3.232 1.187,-3.476 1.08,-3.718 0.937,-3.931 0.756,-4.113 0.572,-4.296 0.357,-4.44 0.111,-4.545 -0.135,-4.651 -0.396,-4.704 -0.672,-4.704 h -1.344 c -0.281,0 -0.545,0.053 -0.787,0.159 -0.244,0.105 -0.455,0.249 -0.638,0.432 -0.182,0.182 -0.327,0.395 -0.432,0.637 -0.106,0.244 -0.158,0.506 -0.158,0.788 V 0 c 0,0.275 0.052,0.536 0.158,0.783 0.105,0.247 0.25,0.461 0.432,0.644 0.183,0.181 0.394,0.326 0.638,0.431 0.242,0.106 0.506,0.159 0.787,0.159 z" />
      </g>
      <g
         transform="translate(512.14004,420.98024)"
         id="g748">
        <path
           inkscape:connector-curvature="0"
           id="path750"
           style="fill:#686969;fill-opacity:1;fill-rule:nonzero;stroke:none"
           d="m 0,0 h 1.143 c 0.224,0 0.414,0.079 0.57,0.235 0.158,0.158 0.236,0.348 0.236,0.572 0,0.224 -0.078,0.415 -0.236,0.571 C 1.557,1.535 1.367,1.613 1.143,1.613 H 0 Z m 3.965,-2.419 v -1.345 h -2.69 v 1.345 H 1.824 L 1.209,-1.344 H 0 v -1.075 h 0.672 v -1.345 h -2.69 v 1.345 h 0.674 v 4.032 h -0.674 v 1.344 h 3.19 C 1.465,2.951 1.74,2.89 1.996,2.775 2.252,2.659 2.477,2.506 2.67,2.314 2.861,2.122 3.012,1.896 3.125,1.637 3.236,1.378 3.293,1.101 3.293,0.807 3.293,0.461 3.219,0.144 3.072,-0.145 2.924,-0.432 2.729,-0.676 2.486,-0.873 l 0.893,-1.546 z" />
      </g>
      <g
         transform="translate(523.35494,423.93724)"
         id="g752">
        <path
           inkscape:connector-curvature="0"
           id="path754"
           style="fill:#686969;fill-opacity:1;fill-rule:nonzero;stroke:none"
           d="m 0,0 v -1.344 h -0.674 v -5.377 h -1.344 l -2.621,4.187 v -2.842 h 0.672 v -1.345 h -2.687 v 1.345 h 0.672 v 4.032 H -6.654 V 0 h 2.015 l 2.621,-4.186 v 2.842 H -2.689 V 0 Z" />
      </g>
    </g>
  </g>
</svg>
